<?xml version="1.0" encoding="utf-8"?>
<!-- Generator: Adobe Illustrator 26.0.1, SVG Export Plug-In . SVG Version: 6.00 Build 0)  -->
<svg version="1.1" id="Layer_1" xmlns="http://www.w3.org/2000/svg" xmlns:xlink="http://www.w3.org/1999/xlink" x="0px" y="0px"
	 viewBox="0 0 222.6 78" style="enable-background:new 0 0 222.6 78;" xml:space="preserve">
<style type="text/css">
	.st0{fill:#2D5BFF;}
	.st1{fill:#FFFFFF;}
	.st2{fill:#196AA3;}
</style>
<polygon class="st0" points="187.1,70.6 159.6,55.1 159.2,23.6 186.3,7.5 213.9,22.9 214.2,54.5 "/>
<path class="st1" d="M201.5,37.4c1.8,1.6,2.2,3.7,2.1,5.9c-0.1,1.4,0,2.8,0,4.2c0,0.9,0,1.8,0,2.7c0,1.4-0.6,2-2,2h-2.8
	c-1.4,0-1.9-0.5-1.9-2v-0.8h-20.2c0,0.4,0,0.8,0,1.2c0,0.8-0.7,1.5-1.5,1.5c-1.2,0-2.4,0-3.6,0c-0.8,0-1.5-0.6-1.6-1.4
	c0,0,0,0,0-0.1c0-3.1-0.1-6.3,0.1-9.4c0.1-1.1,0.8-2.1,1.2-3.1c0.2-0.3,0.4-0.6,0.6-0.8c-0.8-0.3-1.6-0.5-2.3-0.7
	c-1.1-0.2-1.8-1.2-1.6-2.3c0.2-1,1.1-1.7,2.1-1.6c0.5,0,1,0,1.5,0c1-0.2,2.1,0.3,2.5,1.3c0.9-1.8,1.8-3.4,2.6-5.1
	c0.6-1.3,1.8-2.2,3.2-2.5c4.5-0.9,9.1-0.9,13.6,0c1.3,0.3,2.4,1.1,3,2.3c0.9,1.7,1.8,3.4,2.7,5.2c1.3-1.9,3.1-1.1,4.8-1.1
	c0.8,0,1.4,0.9,1.4,1.7c0.1,0.9-0.4,1.7-1.2,2C203.4,36.9,202.5,37.1,201.5,37.4z M198.1,49.4c-0.2,1.6-0.2,1.6,1.2,1.6
	c0.7,0,1.4,0,2.1,0c0.7,0,0.9-0.2,0.9-0.9c0-2.2-0.1-4.4,0-6.6c0.2-2.1-0.5-4.3-2.1-5.7c-0.7-0.6-0.5-1.1,0.4-1.4
	c0.9-0.3,2-0.6,3-0.9c0.3-0.2,0.5-0.5,0.6-0.8c0-0.2-0.5-0.5-0.8-0.6c-0.4,0-0.8,0-1.3,0c-1.5,0-1.4,0-2,1.3
	c-0.2,0.3-0.4,0.6-0.7,0.8c-0.3-0.3-0.6-0.5-0.8-0.8c-1.1-2-2.1-4-3.1-6c-0.4-0.9-1.2-1.5-2.2-1.6c-4.2-0.9-8.6-0.9-12.9-0.1
	c-1.2,0.2-2.2,0.9-2.6,2c-1,2-2,4-3.1,6c-0.2,0.3-0.4,0.5-0.7,0.5c-0.2,0-0.5-0.3-0.6-0.6c-0.3-1.4-1.2-1.7-2.4-1.6
	c-0.3,0-0.5-0.1-0.8,0c-0.4,0.2-0.7,0.4-1,0.6c0.3,0.3,0.5,0.7,0.9,0.9c0.9,0.4,1.9,0.6,2.9,0.9c0.8,0.2,0.8,0.6,0.3,1.3
	c-0.3,0.3-0.6,0.6-0.8,1c-0.5,0.8-1.2,1.7-1.2,2.5c-0.2,3.1-0.1,6.2-0.1,9.2c0.1,0.3,0.3,0.5,0.6,0.6c1,0.1,2,0,3,0
	c0.5,0,0.7-0.2,0.6-0.7c0-0.3,0-0.6,0-1c-0.3,0.1-0.7,0.1-1,0c-0.3-0.1-0.5-0.3-0.7-0.5c0.2-0.2,0.5-0.4,0.7-0.6
	c0.1-0.1,0.3,0,0.4,0h22.6c0.6,0,1.1,0,1.7,0c0.3,0.1,0.5,0.3,0.5,0.6c0,0.2-0.3,0.5-0.6,0.6C198.8,49.4,198.5,49.4,198.1,49.4
	L198.1,49.4z"/>
<path class="st1" d="M198.1,49.4c0.4,0.1,0.7,0.1,1.1,0c0.2-0.1,0.5-0.4,0.6-0.6c-0.1-0.3-0.3-0.5-0.5-0.6c-0.6-0.1-1.1-0.1-1.7,0
	h-22.6c-0.1,0-0.3,0-0.4,0c-0.3,0.2-0.5,0.4-0.7,0.6c0.2,0.2,0.4,0.4,0.7,0.5c0.3,0.1,0.7,0.1,1,0c0,0.4,0,0.7,0,1
	c0,0.5-0.2,0.7-0.6,0.7c-1,0-2,0-3,0c-0.3-0.1-0.5-0.3-0.6-0.6c0-3.1-0.1-6.2,0.1-9.2c0-0.9,0.8-1.7,1.2-2.5c0.2-0.3,0.5-0.7,0.8-1
	c0.5-0.6,0.4-1-0.3-1.3c-1-0.3-2-0.5-2.9-0.9c-0.3-0.1-0.6-0.6-0.9-0.9c0.3-0.2,0.7-0.5,1-0.6c0.2-0.1,0.5,0,0.8,0
	c1.3-0.2,2.1,0.2,2.4,1.6c0,0.2,0.4,0.6,0.6,0.6c0.3-0.1,0.6-0.3,0.7-0.5c1.1-2,2.1-3.9,3.1-6c0.5-1.1,1.5-1.9,2.7-2
	c4.3-0.8,8.6-0.8,12.9,0.1c1,0.2,1.8,0.8,2.2,1.7c1,2,2.1,4,3.1,6c0.2,0.3,0.5,0.5,0.8,0.8c0.3-0.2,0.5-0.5,0.7-0.8
	c0.6-1.3,0.6-1.3,2-1.3c0.4,0,0.8,0,1.3,0c0.3,0.1,0.8,0.4,0.8,0.6c0,0.4-0.3,0.7-0.6,0.8c-1,0.4-2,0.6-3,0.9
	c-1,0.3-1.1,0.7-0.4,1.4c1.6,1.5,2.4,3.6,2.1,5.7c-0.1,2.2,0,4.4,0,6.6c0,0.7-0.2,1-0.9,0.9c-0.7-0.1-1.4,0-2.1,0
	C197.9,51,197.9,51,198.1,49.4z M186.8,36.9H197c1,0,1.2-0.3,0.8-1.2c-0.9-1.9-1.9-3.8-2.8-5.7c-0.3-0.8-1-1.3-1.8-1.5
	c-4.2-1-8.6-1-12.9,0c-0.9,0.2-1.6,0.7-2,1.5c-0.9,1.8-1.8,3.7-2.7,5.5c-0.5,1-0.3,1.3,0.8,1.3H186.8z M186.8,46.2h5.3
	c0.5,0,1,0.1,1-0.6s-0.5-0.6-1-0.6h-10.8c-0.5,0-1,0-1,0.6s0.6,0.6,1,0.6L186.8,46.2z M198.1,38.9c-1.5,0-2.7,1.2-2.7,2.6
	c0,1.5,1.2,2.7,2.6,2.7c1.5,0,2.7-1.1,2.7-2.6c0.1-1.5-1.1-2.7-2.5-2.7C198.2,38.9,198.1,38.9,198.1,38.9L198.1,38.9z M175.5,38.9
	c-1.5,0-2.7,1.1-2.7,2.6s1.1,2.7,2.6,2.7c1.5,0,2.7-1.1,2.7-2.6C178.1,40.2,176.9,39,175.5,38.9L175.5,38.9z"/>
<path class="st1" d="M186.7,36.9h-10.2c-1.2,0-1.3-0.3-0.8-1.3c0.9-1.8,1.8-3.6,2.7-5.5c0.4-0.8,1.1-1.3,1.9-1.5c4.2-1,8.6-1,12.9,0
	c0.8,0.2,1.5,0.8,1.8,1.5c0.9,1.9,1.9,3.7,2.8,5.7c0.4,0.9,0.2,1.2-0.8,1.2L186.7,36.9z M177,35.6h19.4c-0.9-1.8-1.7-3.6-2.6-5.3
	c-0.2-0.3-0.5-0.5-0.9-0.6c-4-1-8.2-1-12.3,0c-0.4,0.1-0.7,0.3-0.9,0.6C178.8,32.1,178,33.8,177,35.6z"/>
<path class="st1" d="M186.7,46.2h-5.3c-0.4,0-1,0.1-1-0.6c0-0.6,0.5-0.6,1-0.6h10.7c0.5,0,1,0,1,0.6c0,0.6-0.6,0.6-1,0.6H186.7z"/>
<path class="st1" d="M198.1,38.9c1.5,0,2.6,1.2,2.6,2.7s-1.2,2.6-2.7,2.6c-1.5,0-2.6-1.2-2.6-2.7C195.4,40.1,196.6,38.9,198.1,38.9
	C198.1,38.9,198.1,38.9,198.1,38.9z M198.1,43c0.8,0,1.4-0.7,1.4-1.5c0-0.8-0.7-1.4-1.4-1.4c-0.8,0-1.5,0.6-1.5,1.4c0,0,0,0,0,0.1
	c0,0.8,0.6,1.4,1.3,1.5C198,43,198,43,198.1,43L198.1,43z"/>
<path class="st1" d="M175.5,38.9c1.5,0,2.6,1.3,2.6,2.7c0,1.5-1.3,2.6-2.7,2.6c-1.4,0-2.6-1.2-2.6-2.7
	C172.7,40.1,173.9,38.9,175.5,38.9C175.4,38.9,175.4,38.9,175.5,38.9z M175.4,43c0.8,0,1.4-0.6,1.5-1.4c0,0,0,0,0-0.1
	c0-0.8-0.7-1.5-1.5-1.5c-0.8,0-1.4,0.6-1.4,1.4C173.9,42.3,174.6,43,175.4,43C175.4,43,175.4,43,175.4,43z"/>
<path class="st2" d="M198.1,43c-0.8,0-1.4-0.6-1.5-1.3c0,0,0-0.1,0-0.1c0-0.8,0.6-1.4,1.4-1.4c0,0,0,0,0,0c0.8,0,1.4,0.6,1.4,1.4
	C199.5,42.3,198.9,43,198.1,43z"/>
<path class="st2" d="M175.4,43c-0.8,0-1.4-0.7-1.4-1.5c0,0,0,0,0,0c0-0.8,0.7-1.4,1.4-1.4c0.8,0,1.5,0.7,1.5,1.5
	c0,0.8-0.6,1.4-1.4,1.5C175.4,43,175.4,43,175.4,43z"/>
<g>
	<path d="M36.3,56.6c-3.9,0-7.2-0.4-9.8-1.3c-2.6-0.9-4.6-2-6.1-3.4c-1.5-1.4-2.6-3.1-3.2-5c-0.6-1.9-0.9-3.9-0.9-6
		c0-1.1,0.1-2.4,0.3-3.8c0.2-1.4,0.5-2.8,0.8-4.1l9.1-1.6c-0.7,1.8-1.2,3.3-1.4,4.7c-0.3,1.4-0.4,2.8-0.4,4.1c0,1.5,0.2,2.8,0.6,3.9
		c0.4,1.1,1.1,2.1,2,2.9s2.3,1.4,3.9,1.8s3.6,0.6,6.1,0.6h5.7V31.8h8.3v17.7h4v7.1H36.3z M37.1,67.5c-0.6,0-1.2-0.1-1.8-0.4
		c-0.6-0.2-1-0.6-1.4-1c-0.4-0.4-0.7-0.9-1-1.4c-0.3-0.6-0.4-1.2-0.4-1.8c0-0.6,0.1-1.2,0.4-1.8c0.2-0.6,0.6-1,1-1.4
		c0.4-0.4,0.9-0.7,1.4-1c0.6-0.2,1.2-0.4,1.8-0.4s1.2,0.1,1.8,0.4c0.6,0.2,1,0.6,1.4,1c0.4,0.4,0.7,0.9,1,1.4
		c0.2,0.6,0.3,1.2,0.3,1.8c0,0.6-0.1,1.2-0.3,1.8c-0.2,0.6-0.6,1-1,1.4c-0.4,0.4-0.9,0.7-1.4,1C38.3,67.4,37.7,67.5,37.1,67.5z"/>
	<path d="M55.1,49.5h5.7c-0.1-0.6-0.2-1.2-0.2-1.8c0-1.3,0.2-2.5,0.7-3.7c0.5-1.1,1.1-2.1,2-2.9c0.8-0.8,1.8-1.4,3-1.9
		c1.2-0.4,2.5-0.7,4-0.7c3.3,0,5.7,0.9,7.1,2.8c1.4,1.8,2.2,4.5,2.4,8.1h1.9c-0.1-4.3-0.9-7.5-2.6-9.7c-1.7-2.2-4.5-3.3-8.4-3.3
		c-1.6,0-3.2,0.2-5,0.5c-1.8,0.3-3.8,0.8-6.1,1.4l0.5-7.3c1.9-0.5,3.8-0.9,5.7-1.2c1.9-0.3,3.8-0.4,5.7-0.4c2.8,0,5.4,0.4,7.7,1.2
		c2.3,0.8,4.2,2,5.8,3.6c1.6,1.6,2.8,3.8,3.7,6.3c0.9,2.6,1.3,5.6,1.3,9.2v6.9H55.1V49.5z M71.9,49.5v-1.2c0-0.8-0.2-1.5-0.5-2
		c-0.3-0.5-0.8-0.8-1.4-0.8c-0.4,0-0.7,0.2-1,0.5s-0.4,0.8-0.4,1.3c0,0.5,0.1,0.9,0.4,1.4c0.3,0.5,0.9,0.8,1.9,0.8H71.9z"/>
	<path d="M94.5,69c-0.5,0-1.1,0-1.7-0.1c-0.6,0-1.3-0.1-2-0.2l0.7-7.2c0.8,0.1,1.4,0.1,1.9,0.2c0.5,0.1,0.9,0.1,1.2,0.1
		c1.7,0,3-0.4,3.9-1.2c0.8-0.8,1.2-2.3,1.2-4.6V31.8h8.4v24c0,1.7-0.2,3.4-0.6,5c-0.4,1.6-1.1,3-2.1,4.2c-1,1.2-2.4,2.2-4.2,2.9
		C99.5,68.6,97.2,69,94.5,69z"/>
	<path d="M116.3,25.7c-0.2,0-0.4,0-0.6,0s-0.5,0-0.7-0.1l-3-0.2v-5.7c1.6-0.3,3.3-0.5,5-0.6c1.7-0.1,3.3-0.2,4.8-0.2
		c0.3,0,0.8,0,1.4,0c0.6,0,1.1,0,1.4,0v30.6h4.2v7.1h-12.5V25.7z"/>
	<path d="M127.1,49.5h14.8c-0.1-1.6-0.5-3.1-1.2-4.6c-0.7-1.4-1.6-2.7-2.8-3.8c-1.2-1.1-2.7-2-4.6-2.7c-1.8-0.7-3.9-1.1-6.4-1.3V31
		c2.1-1.1,4.3-2.3,6.5-3.5c2.2-1.2,4.3-2.4,6.3-3.6c0.8-0.5,1.7-1,2.7-1.6c1-0.6,2-1.1,3-1.7c1-0.6,2-1.1,3-1.7
		c1-0.6,1.9-1.1,2.7-1.5v9.1c-1.2,0.6-2.5,1.3-3.7,1.9s-2.4,1.3-3.5,1.8c-0.5,0.2-0.8,0.4-1.1,0.5c-0.3,0.1-0.5,0.3-0.8,0.4
		c-0.3,0.1-0.6,0.3-1,0.5c-0.4,0.2-0.9,0.5-1.5,0.8c1.9,0.8,3.5,1.9,4.8,3.1c1.3,1.3,2.4,2.7,3.3,4.3c0.8,1.6,1.5,3.3,1.8,5.2
		c0.4,1.9,0.6,3.8,0.6,5.9v5.7h-23V49.5z"/>
</g>
</svg>
